Coordinates
version=1
nRows=15
nColumns=27
inDegrees=yes

Units are S.I. units (second, meters, Newtons, ...)
If the header above contains a line with 'inDegrees', this indicates whether rotational values are in degrees (yes) or radians (no).

endheader
time	pelvis_rotation	pelvis_tilt	pelvis_list	pelvis_tx	pelvis_ty	pelvis_tz	hip_flexion_r	hip_adduction_r	hip_rotation_r	knee_angle_r	knee_rotation_r	knee_adduction_r	knee_angle_r_beta	ankle_angle_r	subtalar_angle_r	mtp_angle_r	hip_flexion_l	hip_adduction_l	hip_rotation_l	knee_angle_l	knee_rotation_l	knee_adduction_l	knee_angle_l_beta	ankle_angle_l	subtalar_angle_l	mtp_angle_l
      5.33500000	     10.16511149	    -29.78367718	      4.28522100	     -0.00164875	      0.66820251	     -1.18030193	     86.34391742	    -44.53606217	     -2.15436374	     72.88114813	      0.00000000	      9.54884268	      1.27201600	      7.91962847	      0.00000000	      0.00000000	     89.85210366	    -19.82966319	      4.01463164	     68.94849230	      0.00000000	     -9.75325124	      1.20337821	      6.11042540	      0.00000000	      0.00000000
      5.34000000	     10.67739571	    -29.66461770	      3.92329889	     -0.00055155	      0.66914360	     -1.18058918	     85.15936474	    -45.17744192	     -3.61978686	     72.61903367	      0.00000000	      9.76289345	      1.26744124	      7.92730698	      0.00000000	      0.00000000	     89.91285257	    -19.33714112	      4.65311235	     68.91133930	      0.00000000	     -9.86797834	      1.20272976	      6.14184578	      0.00000000	      0.00000000
      5.34500000	     10.50446492	    -29.59921162	      4.36013021	     -0.00034516	      0.66969831	     -1.18099666	     85.61303939	    -45.05717047	     -2.82365535	     72.55574266	      0.00000000	      9.76369432	      1.26633660	      7.91097710	      0.00000000	      0.00000000	     89.45182005	    -19.46120434	      4.01414460	     68.75550824	      0.00000000	     -9.86745011	      1.20001000	      6.15393580	      0.00000000	      0.00000000
      5.35000000	     10.71199756	    -29.42146207	      4.13935760	      0.00051629	      0.67057874	     -1.18125867	     84.75475503	    -45.30037411	     -3.60065974	     72.31582291	      0.00000000	      9.76723954	      1.26214921	      7.82299047	      0.00000000	      0.00000000	     89.27860241	    -19.24265480	      4.33192868	     68.67344933	      0.00000000	     -9.86703641	      1.19857780	      6.23228798	      0.00000000	      0.00000000
      5.35500000	      9.90509086	    -29.53219900	      4.41108047	      0.00025531	      0.67110070	     -1.18128265	     85.62742924	    -44.41147802	     -2.31544581	     72.25056877	      0.00000000	      9.56131094	      1.26101031	      7.70204854	      0.00000000	      0.00000000	     88.91317030	    -19.98575363	      3.54760016	     68.53194399	      0.00000000	     -9.75214918	      1.19610807	      6.23841677	      0.00000000	      0.00000000
      5.36000000	     10.34327994	    -29.38121141	      4.47594322	      0.00108597	      0.67172409	     -1.18174609	     85.09798720	    -45.02859587	     -2.93150686	     72.12191451	      0.00000000	      9.76880632	      1.25876487	      7.65941279	      0.00000000	      0.00000000	     88.73269915	    -19.54038432	      3.67278999	     68.45220570	      0.00000000	     -9.86733982	      1.19471637	      6.28691099	      0.00000000	      0.00000000
      5.36500000	     10.42722964	    -29.24533146	      4.28115836	      0.00186823	      0.67257306	     -1.18189113	     84.40061083	    -45.12069473	     -3.52262953	     71.90580783	      0.00000000	      9.76988376	      1.25499310	      7.71351971	      0.00000000	      0.00000000	     88.55651612	    -19.46486913	      3.87249080	     68.35340418	      0.00000000	     -9.86709316	      1.19299196	      6.31340008	      0.00000000	      0.00000000
      5.37000000	     10.28476261	    -29.19194943	      4.39431631	      0.00223734	      0.67313877	     -1.18210857	     84.42944996	    -45.00306560	     -3.29589518	     71.79575599	      0.00000000	      9.77109178	      1.25307233	      7.67012523	      0.00000000	      0.00000000	     88.29031332	    -19.57743321	      3.62349484	     68.25862994	      0.00000000	     -9.86727540	      1.19133784	      6.32561150	      0.00000000	      0.00000000
      5.37500000	     10.11665295	    -29.11119869	      4.53629675	      0.00267655	      0.67366251	     -1.18229326	     84.48512396	    -44.88736438	     -3.02217167	     71.71359761	      0.00000000	      9.77249579	      1.25163840	      7.60241409	      0.00000000	      0.00000000	     87.97646571	    -19.72919677	      3.30726479	     68.16771542	      0.00000000	     -9.86775438	      1.18975108	      6.35705614	      0.00000000	      0.00000000
      5.38000000	      9.57776853	    -29.07338451	      4.60824486	      0.00279984	      0.67426824	     -1.18230252	     84.72354141	    -44.27097420	     -2.35703661	     71.58642157	      0.00000000	      9.57225648	      1.24941876	      7.50344964	      0.00000000	      0.00000000	     87.61841357	    -20.21747062	      2.88070562	     68.04983401	      0.00000000	     -9.75336570	      1.18769366	      6.35590611	      0.00000000	      0.00000000
      5.38500000	     10.06875356	    -28.92250241	      4.30637045	      0.00390572	      0.67500994	     -1.18253673	     83.63600755	    -44.85661160	     -3.64040008	     71.38058860	      0.00000000	      9.77508512	      1.24582629	      7.55208111	      0.00000000	      0.00000000	     87.64525256	    -19.77182007	      3.44616468	     68.02629614	      0.00000000	     -9.86799120	      1.18728285	      6.37281484	      0.00000000	      0.00000000
      5.39000000	     10.07164015	    -28.82518135	      4.50636119	      0.00433560	      0.67544608	     -1.18283675	     83.66891651	    -44.92990056	     -3.41130182	     71.31201816	      0.00000000	      9.77824546	      1.24462951	      7.45207723	      0.00000000	      0.00000000	     87.33348043	    -19.71672448	      3.21652873	     67.92528100	      0.00000000	     -9.86834320	      1.18551980	      6.44239585	      0.00000000	      0.00000000
      5.39500000	     10.04111057	    -28.72747302	      4.47113533	      0.00502436	      0.67619418	     -1.18290936	     83.32573466	    -44.90696240	     -3.59630637	     71.16863170	      0.00000000	      9.77758697	      1.24212695	      7.52955998	      0.00000000	      0.00000000	     87.08513809	    -19.74635909	      3.17737754	     67.80982811	      0.00000000	     -9.86737956	      1.18350477	      6.47285041	      0.00000000	      0.00000000
      5.40000000	      9.74347649	    -28.60265707	      4.14230089	      0.00561295	      0.67710056	     -1.18274549	     82.73005152	    -44.48732878	     -3.89847870	     70.92009241	      0.00000000	      9.58372773	      1.23778912	      7.50457792	      0.00000000	      0.00000000	     86.86894294	    -20.02997591	      3.34924472	     67.69387888	      0.00000000	     -9.75222479	      1.18148107	      6.44373599	      0.00000000	      0.00000000
      5.40500000	     10.11714311	    -28.49761797	      4.13242889	      0.00651299	      0.67772298	     -1.18304007	     82.15984276	    -44.96772902	     -4.56012810	     70.78995381	      0.00000000	      9.78003783	      1.23551777	      7.52330734	      0.00000000	      0.00000000	     86.75128087	    -19.66858749	      3.52969397	     67.62721160	      0.00000000	     -9.86737249	      1.18031751	      6.49373457	      0.00000000	      0.00000000
